<?xml version="1.0" encoding="UTF-8" standalone="no"?>
<!DOCTYPE svg PUBLIC "-//W3C//DTD SVG 1.1//EN" "http://www.w3.org/Graphics/SVG/1.1/DTD/svg11.dtd">
<svg width="100%" height="100%" viewBox="0 0 435 210" version="1.1" xmlns="http://www.w3.org/2000/svg" xmlns:xlink="http://www.w3.org/1999/xlink" xml:space="preserve" xmlns:serif="http://www.serif.com/" style="fill-rule:evenodd;clip-rule:evenodd;stroke-linejoin:round;stroke-miterlimit:2;">
    <g transform="matrix(1,0,0,1,-596.469,-405.55)">
        <g transform="matrix(1,0,0,1,571.469,360.55)">
            <g transform="matrix(0.97568,0,0,0.975914,100.823,217.915)">
                <path d="M0,-24L-57,-24L-57,-44L-0.095,-44L-0.095,-62L-77,-62L-77,-6L-20.095,-6L-20.095,20L-77,20L-77,38L-0.095,38L0,-24Z" style="fill:white;fill-rule:nonzero;"/>
            </g>
        </g>
        <g transform="matrix(1,0,0,1,571.469,360.55)">
            <g transform="matrix(0.97568,0,0,0.975914,189.591,255)">
                <path d="M0,-100L-80,-100L-80,-82L-50,-82L-50,0L-30,0L-30,-82L0,-82L0,-100Z" style="fill:white;fill-rule:nonzero;"/>
            </g>
        </g>
        <g transform="matrix(1,0,0,1,571.469,360.55)">
            <g transform="matrix(0.97568,0,0,0.975914,0.607989,118.551)">
                <path d="M224.289,57.817L264.289,57.817L264.289,79.817L224.289,79.817L224.289,57.817ZM204.289,39.817L204.289,139.817L224.289,139.817L224.289,97.817L264.289,97.817L264.289,139.817L284.289,139.817L284.289,39.817L204.289,39.817Z" style="fill:white;fill-rule:nonzero;"/>
            </g>
        </g>
        <g transform="matrix(1,0,0,1,571.469,360.55)">
            <g transform="matrix(0.97568,0,0,0.975914,0.607989,118.551)">
                <path d="M359.438,71.817L319.438,71.817L319.438,57.817L359.438,57.817L359.438,71.817ZM379.438,39.817L299.438,39.817L299.438,139.817L319.438,139.817L319.438,89.817L328.094,89.817L356.749,139.817L379.438,139.817L350.783,89.817L379.438,89.817L379.438,39.817Z" style="fill:white;fill-rule:nonzero;"/>
            </g>
        </g>
        <g transform="matrix(1,0,0,1,571.469,360.55)">
            <g transform="matrix(0.97568,0,0,0.975914,460,255)">
                <path d="M0,-100L-80,-100L-80,-82L-50,-82L-50,0L-30,0L-30,-82L0,-82L0,-100Z" style="fill:white;fill-rule:nonzero;"/>
            </g>
        </g>
        <g transform="matrix(1,0,0,1,571.469,360.55)">
            <g transform="matrix(0.97568,0,0,0.975914,366.488,45)">
                <path d="M0,100L0,82L-60,82L-60,59L-10,59L-10,41L-60,41L-60,18L0,18L0,0L-80,0L-80,100L0,100Z" style="fill:white;fill-rule:nonzero;"/>
            </g>
        </g>
        <g transform="matrix(1,0,0,1,571.469,360.55)">
            <g transform="matrix(0.97568,0,0,0.975914,278.677,45)">
                <path d="M0,100L-20,100L-20,18L-30,18L-30,100L-50,100L-50,18L-60,18L-60,100L-80,100L-80,0L0,0L0,100Z" style="fill:white;fill-rule:nonzero;"/>
            </g>
        </g>
        <g transform="matrix(1,0,0,1,571.469,360.55)">
            <g transform="matrix(0.97568,0,0,0.975914,0.607989,-106.267)">
                <path d="M135,173L175,173L175,195L135,195L135,173ZM115,155L115,255L135,255L135,213L175,213L175,255L195,255L195,155L115,155Z" style="fill:white;fill-rule:nonzero;"/>
            </g>
        </g>
        <g transform="matrix(1,0,0,1,571.469,360.55)">
            <g transform="matrix(0.97568,0,0,0.975914,103.054,45)">
                <path d="M0,100L0,40L-40,40L-40,58L-20,58L-20,82L-60,82L-60,18L-18,18L0,0L-80,0L-80,100L0,100Z" style="fill:white;fill-rule:nonzero;"/>
            </g>
        </g>
    </g>
</svg>
