<svg width="48" height="48" viewBox="0 0 48 48" fill="none" xmlns="http://www.w3.org/2000/svg">
<path d="M0 24C0 10.7452 10.7452 0 24 0C37.2548 0 48 10.7452 48 24C48 37.2548 37.2548 48 24 48C10.7452 48 0 37.2548 0 24Z" fill="#1F1F1F"/>
<path d="M25.41 24L32.7 16.71C32.9 16.51 32.99 16.26 32.99 16C32.99 15.74 32.89 15.49 32.7 15.29C32.31 14.9 31.68 14.9 31.29 15.29L24 22.58L16.71 15.29C16.32 14.9 15.68 14.9 15.29 15.29C15.09 15.49 15 15.74 15 16C15 16.26 15.1 16.51 15.29 16.71L22.58 24L15.29 31.29C15.09 31.49 15 31.74 15 32C15 32.26 15.1 32.51 15.29 32.71C15.48 32.91 15.74 33 16 33C16.26 33 16.51 32.9 16.71 32.71L24 25.42L31.29 32.71C31.49 32.91 31.74 33 32 33C32.26 33 32.51 32.9 32.71 32.71C32.91 32.52 33 32.26 33 32C33 31.74 32.9 31.49 32.71 31.29L25.42 24H25.41Z" fill="white"/>
</svg>
