<?xml version="1.0" encoding="UTF-8" standalone="no"?>
<!DOCTYPE svg PUBLIC "-//W3C//DTD SVG 1.1//EN" "http://www.w3.org/Graphics/SVG/1.1/DTD/svg11.dtd">
<svg width="100%" height="100%" viewBox="0 0 32 32" version="1.1" xmlns="http://www.w3.org/2000/svg" xmlns:xlink="http://www.w3.org/1999/xlink" xml:space="preserve" xmlns:serif="http://www.serif.com/" style="fill-rule:evenodd;clip-rule:evenodd;stroke-linejoin:round;stroke-miterlimit:2;">
    <g transform="matrix(1,0,0,1,-635.094,-232.249)">
        <g transform="matrix(3.12429,0,0,3.25721,-1270.69,-991.374)">
            <path d="M619.381,379.289C619.472,379.289 619.553,379.347 619.582,379.434C619.611,379.521 619.582,379.616 619.509,379.671C618.789,380.213 617.516,381.171 617.117,381.472C617.044,381.527 617.014,381.623 617.044,381.71C617.207,382.186 617.729,383.712 618.032,384.595C618.062,384.683 618.032,384.78 617.956,384.835C617.881,384.89 617.779,384.89 617.704,384.834C616.938,384.265 615.597,383.268 615.181,382.959C615.106,382.903 615.003,382.903 614.928,382.959C614.523,383.259 613.244,384.205 612.511,384.748C612.437,384.803 612.335,384.804 612.26,384.75C612.185,384.696 612.153,384.6 612.182,384.512C612.462,383.639 612.951,382.114 613.103,381.64C613.131,381.554 613.101,381.459 613.028,381.405C612.641,381.115 611.419,380.198 610.716,379.671C610.643,379.616 610.613,379.521 610.642,379.434C610.671,379.347 610.753,379.289 610.844,379.289L613.766,379.289C613.858,379.289 613.939,379.23 613.968,379.143C614.122,378.685 614.603,377.248 614.878,376.425C614.907,376.339 614.988,376.28 615.079,376.28C615.17,376.28 615.252,376.337 615.281,376.423C615.565,377.247 616.062,378.688 616.22,379.145C616.25,379.231 616.33,379.289 616.421,379.289L619.381,379.289Z" style="fill:rgb(45,45,45);fill-rule:nonzero;"/>
        </g>
        <g transform="matrix(0.819611,0,0,1.23625,105.409,-54.8679)">
            <rect x="646.265" y="232.249" width="39.043" height="25.885" style="fill:none;"/>
        </g>
    </g>
</svg>
