<?xml version="1.0" encoding="UTF-8" standalone="no"?>
<!DOCTYPE svg PUBLIC "-//W3C//DTD SVG 1.1//EN" "http://www.w3.org/Graphics/SVG/1.1/DTD/svg11.dtd">
<svg width="100%" height="100%" viewBox="0 0 72 72" version="1.1" xmlns="http://www.w3.org/2000/svg" xmlns:xlink="http://www.w3.org/1999/xlink" xml:space="preserve" xmlns:serif="http://www.serif.com/" style="fill-rule:evenodd;clip-rule:evenodd;stroke-linejoin:round;stroke-miterlimit:2;">
    <g transform="matrix(1,0,0,1,-718.864,-308.914)">
        <g transform="matrix(1.12749,0,0,1.12749,-53.2017,-28.2676)">
            <path d="M695.92,355.224C689.093,349.366 684.766,340.677 684.766,330.985C684.766,313.363 699.073,299.056 716.695,299.056C734.317,299.056 748.625,313.363 748.625,330.985C748.625,340.677 744.297,349.366 737.47,355.224C735.723,347.073 729.296,340.651 721.142,338.911C726.784,337.045 730.859,331.725 730.859,325.461C730.859,317.643 724.513,311.296 716.695,311.296C708.878,311.296 702.531,317.643 702.531,325.461C702.531,331.725 706.606,337.045 712.248,338.911C704.095,340.651 697.667,347.073 695.92,355.224Z" style="fill:rgb(45,45,45);"/>
        </g>
        <g transform="matrix(0.291577,0,0,0.291577,524.042,229.144)">
            <path d="M711.301,490.776C718.056,459.259 742.911,434.424 774.439,427.699C752.623,420.48 736.864,399.909 736.864,375.686C736.864,345.457 761.407,320.914 791.636,320.914C821.865,320.914 846.407,345.457 846.407,375.686C846.407,399.909 830.648,420.48 808.832,427.699C840.36,434.424 865.216,459.259 871.971,490.776C850.371,509.31 822.301,520.514 791.636,520.514C760.97,520.514 732.901,509.31 711.301,490.776Z" style="fill:white;"/>
        </g>
    </g>
</svg>
